<svg width="38" height="38" viewBox="0 0 38 38" fill="none" xmlns="http://www.w3.org/2000/svg">
<path d="M11.9284 16.6433L14.2867 14.2867L19 19L23.7134 14.2867L26.0717 16.6433L19 23.7133L11.9284 16.6433Z" fill="#2A83EA"/>
<path fill-rule="evenodd" clip-rule="evenodd" d="M0.666687 7.33335C0.666687 5.56524 1.36907 3.86955 2.61931 2.61931C3.86955 1.36907 5.56524 0.666687 7.33335 0.666687H30.6667C32.4348 0.666687 34.1305 1.36907 35.3807 2.61931C36.631 3.86955 37.3334 5.56524 37.3334 7.33335V30.6667C37.3334 32.4348 36.631 34.1305 35.3807 35.3807C34.1305 36.631 32.4348 37.3334 30.6667 37.3334H7.33335C5.56524 37.3334 3.86955 36.631 2.61931 35.3807C1.36907 34.1305 0.666687 32.4348 0.666687 30.6667V7.33335ZM7.33335 3.5H30.6667C31.5507 3.5 32.8749 4.35121 33.5 4.97633C34.1251 5.60145 34.5 6.4493 34.5 7.33335V30.6667C34.5 31.5507 34.1251 32.8749 33.5 33.5C32.8749 34.1251 31.5507 34.5 30.6667 34.5H7.33335C6.4493 34.5 5.12512 34.1251 4.5 33.5C3.87488 32.8749 3.5 31.5507 3.5 30.6667V19.5V7.33335C3.5 6.4493 3.87488 5.60145 4.5 4.97633C5.12512 4.35121 6.4493 3.5 7.33335 3.5Z" fill="#2A83EA"/>
</svg>
