<svg width="18" height="19" viewBox="0 0 18 19" fill="none" xmlns="http://www.w3.org/2000/svg">
<g id="logos:whatsapp-icon" clip-path="url(#clip0_10233_5004)">
<path id="Vector" d="M0.383945 9.39146C0.383523 10.9156 0.781773 12.4039 1.53904 13.7156L0.311523 18.1975L4.89815 16.9948C6.16675 17.6854 7.58812 18.0473 9.03252 18.0474H9.03632C13.8046 18.0474 17.686 14.1674 17.6881 9.39828C17.689 7.08731 16.7898 4.91424 15.1562 3.27933C13.5228 1.64456 11.3505 0.743792 9.03597 0.742737C4.26717 0.742737 0.385984 4.62258 0.384016 9.39146" fill="url(#paint0_linear_10233_5004)"/>
<path id="Vector_2" d="M0.0752344 9.38863C0.0747422 10.9676 0.487266 12.5091 1.27153 13.8678L0 18.5103L4.75109 17.2646C6.06016 17.9784 7.53405 18.3547 9.03382 18.3552H9.03769C13.977 18.3552 17.9979 14.3356 18 9.3958C18.0008 7.0018 17.0693 4.7506 15.3773 3.05713C13.6851 1.36386 11.4351 0.430672 9.03769 0.429688C4.09753 0.429688 0.0772031 4.44875 0.0752344 9.38863ZM2.90468 13.6338L2.72728 13.3522C1.98155 12.1665 1.58794 10.7962 1.5885 9.38919C1.59005 5.28329 4.93158 1.94281 9.0405 1.94281C11.0303 1.94366 12.9004 2.71934 14.3069 4.12672C15.7134 5.53424 16.4873 7.40525 16.4868 9.39524C16.485 13.5011 13.1434 16.842 9.03769 16.842H9.03473C7.69788 16.8413 6.38677 16.4823 5.24334 15.8039L4.97123 15.6425L2.15184 16.3817L2.90468 13.6338Z" fill="url(#paint1_linear_10233_5004)"/>
<path id="Vector_3" d="M6.79738 5.64324C6.62962 5.27037 6.45306 5.26285 6.29352 5.25631C6.16288 5.25068 6.01354 5.25111 5.86434 5.25111C5.71499 5.25111 5.47234 5.30729 5.26724 5.53123C5.06193 5.75539 4.4834 6.29707 4.4834 7.3988C4.4834 8.50053 5.28588 9.56534 5.39774 9.71489C5.50975 9.86417 6.94694 12.1974 9.22309 13.095C11.1148 13.841 11.4997 13.6926 11.9103 13.6552C12.3209 13.6179 13.2353 13.1137 13.4218 12.5907C13.6085 12.0679 13.6085 11.6197 13.5525 11.5261C13.4965 11.4328 13.3472 11.3767 13.1233 11.2648C12.8993 11.1529 11.7983 10.611 11.593 10.5363C11.3877 10.4616 11.2385 10.4243 11.0891 10.6486C10.9398 10.8724 10.5109 11.3767 10.3802 11.5261C10.2497 11.6758 10.1189 11.6944 9.89507 11.5824C9.67098 11.47 8.94979 11.2339 8.09416 10.471C7.42844 9.87746 6.979 9.14445 6.84836 8.92022C6.71772 8.69635 6.83437 8.57499 6.94666 8.4634C7.04727 8.36307 7.17067 8.20191 7.28275 8.0712C7.39441 7.94042 7.43167 7.84711 7.50634 7.69777C7.58109 7.54829 7.54368 7.4175 7.48778 7.3055C7.43167 7.19349 6.99651 6.086 6.79738 5.64324Z" fill="white"/>
</g>
<defs>
<linearGradient id="paint0_linear_10233_5004" x1="869.139" y1="1746.22" x2="869.139" y2="0.742737" gradientUnits="userSpaceOnUse">
<stop stop-color="#1FAF38"/>
<stop offset="1" stop-color="#60D669"/>
</linearGradient>
<linearGradient id="paint1_linear_10233_5004" x1="900" y1="1808.49" x2="900" y2="0.429688" gradientUnits="userSpaceOnUse">
<stop stop-color="#F9F9F9"/>
<stop offset="1" stop-color="white"/>
</linearGradient>
<clipPath id="clip0_10233_5004">
<rect width="18" height="18.1406" fill="white" transform="translate(0 0.429688)"/>
</clipPath>
</defs>
</svg>
