<svg width="26" height="26" viewBox="0 0 26 26" fill="none" xmlns="http://www.w3.org/2000/svg">
<path d="M13 2.16669C11.5774 2.16669 10.1686 2.4469 8.85428 2.99133C7.53992 3.53575 6.34567 4.33373 5.3397 5.3397C3.30805 7.37134 2.16669 10.1268 2.16669 13C2.16669 17.7884 5.27585 21.8509 9.57669 23.2917C10.1184 23.3784 10.2917 23.0425 10.2917 22.75V20.9192C7.29085 21.5692 6.65169 19.4675 6.65169 19.4675C6.15335 18.2109 5.44919 17.875 5.44919 17.875C4.46335 17.2034 5.52502 17.225 5.52502 17.225C6.60835 17.3009 7.18252 18.3409 7.18252 18.3409C8.12502 19.9875 9.71752 19.5 10.335 19.24C10.4325 18.5359 10.7142 18.0592 11.0175 17.7884C8.61252 17.5175 6.08835 16.5859 6.08835 12.4584C6.08835 11.2559 6.50002 10.2917 7.20419 9.52252C7.09585 9.25169 6.71669 8.12502 7.31252 6.66252C7.31252 6.66252 8.22252 6.37002 10.2917 7.76752C11.1475 7.52919 12.0792 7.41002 13 7.41002C13.9209 7.41002 14.8525 7.52919 15.7084 7.76752C17.7775 6.37002 18.6875 6.66252 18.6875 6.66252C19.2834 8.12502 18.9042 9.25169 18.7959 9.52252C19.5 10.2917 19.9117 11.2559 19.9117 12.4584C19.9117 16.5967 17.3767 17.5067 14.9609 17.7775C15.3509 18.1134 15.7084 18.7742 15.7084 19.7817V22.75C15.7084 23.0425 15.8817 23.3892 16.4342 23.2917C20.735 21.84 23.8334 17.7884 23.8334 13C23.8334 11.5774 23.5531 10.1686 23.0087 8.85428C22.4643 7.53992 21.6663 6.34567 20.6603 5.3397C19.6544 4.33373 18.4601 3.53575 17.1458 2.99133C15.8314 2.4469 14.4227 2.16669 13 2.16669Z" fill="#212529"/>
</svg>
