<svg width="21" height="14" viewBox="0 0 21 14" fill="none" xmlns="http://www.w3.org/2000/svg">
<path d="M13.8557 13.5223C13.9095 13.5223 13.9627 13.5115 14.0122 13.4904C14.0617 13.4694 14.1064 13.4386 14.1437 13.3999L20.0309 7.29511C20.1025 7.2206 20.1425 7.12126 20.1425 7.01791C20.1425 6.91456 20.1025 6.81523 20.0309 6.74072L14.1181 0.611115C14.0823 0.571033 14.0387 0.538586 13.9901 0.515715C13.9414 0.492844 13.8886 0.480018 13.8349 0.478003C13.7812 0.475988 13.7276 0.484826 13.6774 0.503987C13.6271 0.523149 13.5813 0.552242 13.5425 0.589527C13.5038 0.626813 13.473 0.671525 13.4519 0.720992C13.4308 0.770459 13.42 0.823666 13.4199 0.877433C13.4199 0.931199 13.4307 0.984421 13.4517 1.03392C13.4727 1.08342 13.5034 1.12817 13.5421 1.16551L19.1869 7.01751L13.5677 12.8447C13.5132 12.9012 13.4766 12.9725 13.4624 13.0497C13.4481 13.1269 13.4569 13.2065 13.4876 13.2788C13.5183 13.351 13.5696 13.4126 13.635 13.4559C13.7005 13.4992 13.7772 13.5223 13.8557 13.5223Z" fill="black"/>
<path d="M0.4 7.41749H19.744C19.8501 7.41749 19.9518 7.37535 20.0268 7.30034C20.1019 7.22532 20.144 7.12358 20.144 7.01749C20.144 6.91141 20.1019 6.80967 20.0268 6.73465C19.9518 6.65964 19.8501 6.61749 19.744 6.61749H0.4C0.293913 6.61749 0.192172 6.65964 0.117157 6.73465C0.0421428 6.80967 0 6.91141 0 7.01749C0 7.12358 0.0421428 7.22532 0.117157 7.30034C0.192172 7.37535 0.293913 7.41749 0.4 7.41749Z" fill="black"/>
</svg>
