<svg width="22" height="22" viewBox="0 0 22 22" fill="none" xmlns="http://www.w3.org/2000/svg">
<path d="M17.4625 4.50086C16.622 3.65213 15.621 2.97916 14.5177 2.52119C13.4145 2.06322 12.2312 1.82941 11.0367 1.83336C6.03168 1.83336 1.95251 5.91253 1.95251 10.9175C1.95251 12.5217 2.37418 14.08 3.16251 15.455L1.87918 20.1667L6.69168 18.9017C8.02085 19.6259 9.51501 20.0109 11.0367 20.0109C16.0417 20.0109 20.1208 15.9317 20.1208 10.9267C20.1208 8.49753 19.1767 6.21503 17.4625 4.50086ZM11.0367 18.4709C9.68001 18.4709 8.35085 18.1042 7.18668 17.4167L6.91168 17.2517L4.05168 18.0034L4.81251 15.2167L4.62918 14.9325C3.87527 13.729 3.47503 12.3377 3.47418 10.9175C3.47418 6.75586 6.86585 3.3642 11.0275 3.3642C13.0442 3.3642 14.9417 4.15253 16.3625 5.58253C17.0662 6.28274 17.6238 7.11569 18.003 8.03308C18.3822 8.95047 18.5755 9.93402 18.5717 10.9267C18.59 15.0884 15.1983 18.4709 11.0367 18.4709ZM15.18 12.8242C14.9508 12.7142 13.8325 12.1642 13.6308 12.0817C13.42 12.0084 13.2733 11.9717 13.1175 12.1917C12.9617 12.4209 12.5308 12.9342 12.4025 13.0809C12.2742 13.2367 12.1367 13.255 11.9075 13.1359C11.6783 13.0259 10.945 12.7784 10.0833 12.0084C9.40501 11.4034 8.95585 10.6609 8.81835 10.4317C8.69001 10.2025 8.80001 10.0834 8.91918 9.9642C9.02001 9.86336 9.14835 9.69836 9.25835 9.57003C9.36835 9.4417 9.41418 9.34086 9.48751 9.1942C9.56085 9.03836 9.52418 8.91003 9.46918 8.80003C9.41418 8.69003 8.95585 7.5717 8.77251 7.11336C8.58918 6.67336 8.39668 6.72836 8.25918 6.7192H7.81918C7.66335 6.7192 7.42501 6.7742 7.21418 7.00336C7.01251 7.23253 6.42585 7.78253 6.42585 8.90086C6.42585 10.0192 7.24168 11.1009 7.35168 11.2475C7.46168 11.4034 8.95585 13.695 11.2292 14.6759C11.77 14.9142 12.1917 15.0517 12.5217 15.1525C13.0625 15.3267 13.5575 15.2992 13.9517 15.2442C14.3917 15.18 15.2992 14.6942 15.4825 14.1625C15.675 13.6309 15.675 13.1817 15.6108 13.0809C15.5467 12.98 15.4092 12.9342 15.18 12.8242Z" fill="#212529"/>
</svg>
