<svg width="125" height="200" viewBox="0 0 125 200" fill="none" xmlns="http://www.w3.org/2000/svg">
<path d="M2.7715 144.915C2.7715 145.68 2.15065 146.301 1.38575 146.301C0.620848 146.301 0 145.68 0 144.915V17.9843C0 17.2194 0.620848 16.5985 1.38575 16.5985C2.15065 16.5985 2.7715 17.2194 2.7715 17.9843V144.915ZM90.317 163.977C88.2171 162.729 86.1476 161.497 84.0538 160.254V193.246C84.0538 194.011 83.4349 194.631 82.67 194.631C81.9051 194.631 81.2843 194.011 81.2843 193.246V158.606L77.7925 156.531C77.4537 156.47 77.1595 156.289 76.9526 156.031L75.0231 154.883V187.875C75.0231 188.64 74.4022 189.261 73.6373 189.261C72.8724 189.261 72.2516 188.64 72.2516 187.875V153.236C70.1537 151.988 68.0842 150.758 65.9924 149.515V182.505C65.9924 183.27 65.3715 183.89 64.6066 183.89C63.8417 183.89 63.2209 183.27 63.2209 182.505V147.867C61.121 146.617 59.0535 145.388 56.9597 144.144V177.134C56.9597 177.901 56.3409 178.52 55.576 178.52C54.8111 178.52 54.1902 177.901 54.1902 177.134V142.497C52.0903 141.249 50.0208 140.017 47.929 138.774V171.766C47.929 172.531 47.3081 173.149 46.5432 173.149C45.7783 173.149 45.1575 172.531 45.1575 171.766V137.126C43.0576 135.878 40.9901 134.649 38.8983 133.403V166.395C38.8983 167.16 38.2774 167.781 37.5125 167.781C36.7476 167.781 36.1268 167.16 36.1268 166.395V131.756C34.0269 130.508 31.9574 129.278 29.8656 128.032V161.025C29.8656 161.789 29.2447 162.41 28.4798 162.41C27.7149 162.41 27.0961 161.789 27.0961 161.025V34.0938C27.0961 33.3289 27.7149 32.7101 28.4798 32.7101C28.77 32.7101 29.0378 32.7974 29.261 32.9495L31.4928 34.2764V1.38575C31.4928 0.620847 32.1116 0 32.8785 0C33.6434 0 34.2622 0.620847 34.2622 1.38575V35.9239L38.1435 38.2308C38.1943 38.2572 38.245 38.2876 38.2917 38.3201L40.5235 39.647V6.75628C40.5235 5.99138 41.1443 5.37053 41.9092 5.37053C42.6741 5.37053 43.295 5.99138 43.295 6.75628V41.2944L47.1742 43.6013C47.225 43.6277 47.2757 43.6581 47.3223 43.6906L49.5541 45.0175V12.1268C49.5541 11.3619 50.175 10.7411 50.9399 10.7411C51.7048 10.7411 52.3256 11.3619 52.3256 12.1268V46.665L56.2049 48.9718C56.2577 48.9982 56.3064 49.0266 56.3551 49.0591L58.5869 50.388V17.4953C58.5869 16.7304 59.2077 16.1116 59.9726 16.1116C60.7375 16.1116 61.3584 16.7304 61.3584 17.4953V52.0355L65.2376 54.3424C65.2884 54.3688 65.3391 54.3972 65.3857 54.4296L67.6175 55.7565V22.8658C67.6175 22.1009 68.2384 21.4821 69.0033 21.4821C69.7682 21.4821 70.389 22.1009 70.389 22.8658V57.404L74.2703 59.7129C74.3211 59.7372 74.3698 59.7677 74.4164 59.8001L76.6503 61.1271V28.2364C76.6503 27.4715 77.2691 26.8506 78.034 26.8506C78.8009 26.8506 79.4197 27.4715 79.4197 28.2364V62.7745L83.301 65.0814C83.3518 65.1078 83.4005 65.1382 83.4491 65.1707L85.6809 66.4976V33.6069C85.6809 32.842 86.3018 32.2211 87.0667 32.2211C87.8316 32.2211 88.4524 32.842 88.4524 33.6069V68.1451L92.3317 70.4519C92.7801 70.6812 93.0865 71.1479 93.0865 71.6855V198.614C93.0865 199.381 92.4656 200 91.7007 200C90.9358 200 90.317 199.381 90.317 198.614V163.977ZM97.4831 165.906C97.4831 166.671 96.8643 167.292 96.0994 167.292C95.3325 167.292 94.7137 166.671 94.7137 165.906V38.9774C94.7137 38.2125 95.3325 37.5917 96.0994 37.5917C96.8643 37.5917 97.4831 38.2125 97.4831 38.9774V165.906ZM106.516 171.277C106.516 172.042 105.895 172.662 105.13 172.662C104.365 172.662 103.744 172.042 103.744 171.277V44.348C103.744 43.581 104.365 42.9622 105.13 42.9622C105.895 42.9622 106.516 43.581 106.516 44.348V171.277ZM115.547 176.647C115.547 177.412 114.926 178.033 114.161 178.033C113.396 178.033 112.775 177.412 112.775 176.647V49.7165C112.775 48.9516 113.396 48.3307 114.161 48.3307C114.926 48.3307 115.547 48.9516 115.547 49.7165V176.647ZM124.579 182.018C124.579 182.783 123.958 183.401 123.193 183.401C122.429 183.401 121.808 182.783 121.808 182.018V55.087C121.808 54.3221 122.429 53.7012 123.193 53.7012C123.958 53.7012 124.579 54.3221 124.579 55.087V182.018ZM11.8022 150.284C11.8022 151.048 11.1834 151.669 10.4164 151.669C9.65154 151.669 9.03271 151.048 9.03271 150.284V23.3548C9.03271 22.5899 9.65154 21.9691 10.4164 21.9691C11.1834 21.9691 11.8022 22.5899 11.8022 23.3548V150.284ZM20.8349 155.654C20.8349 156.419 20.2141 157.04 19.4492 157.04C18.6842 157.04 18.0634 156.419 18.0634 155.654V28.7253C18.0634 27.9604 18.6842 27.3396 19.4492 27.3396C20.2141 27.3396 20.8349 27.9604 20.8349 28.7253V155.654Z" fill="#212529"/>
</svg>
