<svg width="63" height="100" viewBox="0 0 63 100" fill="none" xmlns="http://www.w3.org/2000/svg">
<path d="M1.38575 72.4575C1.38575 72.84 1.07532 73.1504 0.692874 73.1504C0.310424 73.1504 0 72.84 0 72.4575V8.99214C0 8.60969 0.310424 8.29926 0.692874 8.29926C1.07532 8.29926 1.38575 8.60969 1.38575 8.99214V72.4575ZM45.1585 81.9883C44.1085 81.3644 43.0738 80.7487 42.0269 80.1268V96.6229C42.0269 97.0053 41.7175 97.3157 41.335 97.3157C40.9526 97.3157 40.6421 97.0053 40.6421 96.6229V79.3031L38.8963 78.2653C38.7269 78.2348 38.5798 78.1446 38.4763 78.0157L37.5115 77.4415V93.9376C37.5115 94.32 37.2011 94.6305 36.8187 94.6305C36.4362 94.6305 36.1258 94.32 36.1258 93.9376V76.6178C35.0768 75.9939 34.0421 75.3792 32.9962 74.7573V91.2523C32.9962 91.6348 32.6858 91.9452 32.3033 91.9452C31.9209 91.9452 31.6104 91.6348 31.6104 91.2523V73.9336C30.5605 73.3086 29.5268 72.6939 28.4798 72.072V88.5671C28.4798 88.9505 28.1704 89.2599 27.788 89.2599C27.4055 89.2599 27.0951 88.9505 27.0951 88.5671V71.2483C26.0451 70.6244 25.0104 70.0086 23.9645 69.3868V85.8828C23.9645 86.2653 23.6541 86.5747 23.2716 86.5747C22.8892 86.5747 22.5787 86.2653 22.5787 85.8828V68.563C21.5288 67.9391 20.4951 67.3244 19.4492 66.7015V83.1976C19.4492 83.58 19.1387 83.8904 18.7563 83.8904C18.3738 83.8904 18.0634 83.58 18.0634 83.1976V65.8778C17.0134 65.2539 15.9787 64.6391 14.9328 64.0162V80.5123C14.9328 80.8947 14.6224 81.2052 14.2399 81.2052C13.8575 81.2052 13.5481 80.8947 13.5481 80.5123V17.0469C13.5481 16.6645 13.8575 16.3551 14.2399 16.3551C14.385 16.3551 14.5189 16.3987 14.6305 16.4748L15.7464 17.1382V0.692873C15.7464 0.310423 16.0558 0 16.4393 0C16.8217 0 17.1311 0.310423 17.1311 0.692873V17.962L19.0718 19.1154C19.0971 19.1286 19.1225 19.1438 19.1458 19.16L20.2617 19.8235V3.37814C20.2617 2.99569 20.5722 2.68526 20.9546 2.68526C21.3371 2.68526 21.6475 2.99569 21.6475 3.37814V20.6472L23.5871 21.8007C23.6125 21.8138 23.6378 21.8291 23.6612 21.8453L24.7771 22.5087V6.0634C24.7771 5.68095 25.0875 5.37053 25.4699 5.37053C25.8524 5.37053 26.1628 5.68095 26.1628 6.0634V23.3325L28.1025 24.4859C28.1288 24.4991 28.1532 24.5133 28.1775 24.5295L29.2934 25.194V8.74765C29.2934 8.3652 29.6039 8.05579 29.9863 8.05579C30.3688 8.05579 30.6792 8.3652 30.6792 8.74765V26.0177L32.6188 27.1712C32.6442 27.1844 32.6695 27.1986 32.6929 27.2148L33.8088 27.8783V11.4329C33.8088 11.0505 34.1192 10.7411 34.5016 10.7411C34.8841 10.7411 35.1945 11.0505 35.1945 11.4329V28.702L37.1352 29.8565C37.1605 29.8686 37.1849 29.8838 37.2082 29.9001L38.3251 30.5635V14.1182C38.3251 13.7357 38.6345 13.4253 39.017 13.4253C39.4005 13.4253 39.7099 13.7357 39.7099 14.1182V31.3873L41.6505 32.5407C41.6759 32.5539 41.7002 32.5691 41.7246 32.5853L42.8405 33.2488V16.8034C42.8405 16.421 43.1509 16.1106 43.5333 16.1106C43.9158 16.1106 44.2262 16.421 44.2262 16.8034V34.0725L46.1659 35.226C46.3901 35.3406 46.5432 35.5739 46.5432 35.8428V99.3071C46.5432 99.6906 46.2328 100 45.8504 100C45.4679 100 45.1585 99.6906 45.1585 99.3071V81.9883ZM48.7416 82.9531C48.7416 83.3355 48.4322 83.646 48.0497 83.646C47.6662 83.646 47.3568 83.3355 47.3568 82.9531V19.4887C47.3568 19.1063 47.6662 18.7958 48.0497 18.7958C48.4322 18.7958 48.7416 19.1063 48.7416 19.4887V82.9531ZM53.2579 85.6383C53.2579 86.0208 52.9475 86.3312 52.565 86.3312C52.1826 86.3312 51.8722 86.0208 51.8722 85.6383V22.174C51.8722 21.7905 52.1826 21.4811 52.565 21.4811C52.9475 21.4811 53.2579 21.7905 53.2579 22.174V85.6383ZM57.7733 88.3236C57.7733 88.7061 57.4628 89.0165 57.0804 89.0165C56.6979 89.0165 56.3875 88.7061 56.3875 88.3236V24.8582C56.3875 24.4758 56.6979 24.1654 57.0804 24.1654C57.4628 24.1654 57.7733 24.4758 57.7733 24.8582V88.3236ZM62.2896 91.0089C62.2896 91.3913 61.9792 91.7007 61.5967 91.7007C61.2143 91.7007 60.9039 91.3913 60.9039 91.0089V27.5435C60.9039 27.161 61.2143 26.8506 61.5967 26.8506C61.9792 26.8506 62.2896 27.161 62.2896 27.5435V91.0089ZM5.90109 75.1418C5.90109 75.5242 5.59168 75.8346 5.20822 75.8346C4.82577 75.8346 4.51636 75.5242 4.51636 75.1418V11.6774C4.51636 11.295 4.82577 10.9845 5.20822 10.9845C5.59168 10.9845 5.90109 11.295 5.90109 11.6774V75.1418ZM10.4174 77.827C10.4174 78.2095 10.107 78.5199 9.72458 78.5199C9.34212 78.5199 9.0317 78.2095 9.0317 77.827V14.3627C9.0317 13.9802 9.34212 13.6698 9.72458 13.6698C10.107 13.6698 10.4174 13.9802 10.4174 14.3627V77.827Z" fill="#212529"/>
</svg>
