<svg width="119" height="50" viewBox="0 0 119 50" fill="none" xmlns="http://www.w3.org/2000/svg">
<path d="M0.692874 36.2288C0.692874 36.42 0.537662 36.5752 0.346437 36.5752C0.155212 36.5752 0 36.42 0 36.2288V4.49607C0 4.30484 0.155212 4.14963 0.346437 4.14963C0.537662 4.14963 0.692874 4.30484 0.692874 4.49607V36.2288ZM22.5793 40.9942C22.0543 40.6822 21.5369 40.3743 21.0134 40.0634V48.3114C21.0134 48.5027 20.8587 48.6579 20.6675 48.6579C20.4763 48.6579 20.3211 48.5027 20.3211 48.3114V39.6515L19.4481 39.1326C19.3634 39.1174 19.2899 39.0723 19.2381 39.0079L18.7558 38.7208V46.9688C18.7558 47.16 18.6006 47.3152 18.4093 47.3152C18.2181 47.3152 18.0629 47.16 18.0629 46.9688V38.3089C17.5384 37.997 17.021 37.6896 16.4981 37.3786V45.6262C16.4981 45.8174 16.3429 45.9726 16.1517 45.9726C15.9604 45.9726 15.8052 45.8174 15.8052 45.6262V36.9668C15.2802 36.6543 14.7634 36.3469 14.2399 36.036V44.2835C14.2399 44.4753 14.0852 44.63 13.894 44.63C13.7028 44.63 13.5476 44.4753 13.5476 44.2835V35.6241C13.0226 35.3122 12.5052 35.0043 11.9822 34.6934V42.9414C11.9822 43.1326 11.827 43.2873 11.6358 43.2873C11.4446 43.2873 11.2894 43.1326 11.2894 42.9414V34.2815C10.7644 33.9696 10.2475 33.6622 9.72458 33.3507V41.5988C9.72458 41.79 9.56936 41.9452 9.37814 41.9452C9.18691 41.9452 9.0317 41.79 9.0317 41.5988V32.9389C8.50672 32.6269 7.98935 32.3196 7.4664 32.0081V40.2561C7.4664 40.4474 7.31118 40.6026 7.11996 40.6026C6.92873 40.6026 6.77403 40.4474 6.77403 40.2561V8.52346C6.77403 8.33223 6.92873 8.17753 7.11996 8.17753C7.19249 8.17753 7.25945 8.19934 7.31524 8.23738L7.87319 8.56911V0.346437C7.87319 0.155212 8.0279 0 8.21963 0C8.41086 0 8.56556 0.155212 8.56556 0.346437V8.98098L9.53588 9.5577C9.54857 9.56429 9.56125 9.5719 9.57291 9.58002L10.1309 9.91174V1.68907C10.1309 1.49784 10.2861 1.34263 10.4773 1.34263C10.6685 1.34263 10.8237 1.49784 10.8237 1.68907V10.3236L11.7936 10.9003C11.8062 10.9069 11.8189 10.9145 11.8306 10.9226L12.3885 11.2544V3.0317C12.3885 2.84048 12.5437 2.68526 12.735 2.68526C12.9262 2.68526 13.0814 2.84048 13.0814 3.0317V11.6662L14.0512 12.243C14.0644 12.2496 14.0766 12.2567 14.0888 12.2648L14.6467 12.597V4.37383C14.6467 4.1826 14.8019 4.0279 14.9932 4.0279C15.1844 4.0279 15.3396 4.1826 15.3396 4.37383V13.0089L16.3094 13.5856C16.3221 13.5922 16.3348 13.5993 16.3464 13.6074L16.9044 13.9391V5.71646C16.9044 5.52523 17.0596 5.37053 17.2508 5.37053C17.442 5.37053 17.5973 5.52523 17.5973 5.71646V14.351L18.5676 14.9282C18.5803 14.9343 18.5924 14.9419 18.6041 14.95L19.1626 15.2818V7.05909C19.1626 6.86787 19.3173 6.71266 19.5085 6.71266C19.7002 6.71266 19.8549 6.86787 19.8549 7.05909V15.6936L20.8253 16.2704C20.8379 16.2769 20.8501 16.2846 20.8623 16.2927L21.4202 16.6244V8.40172C21.4202 8.2105 21.5754 8.05529 21.7667 8.05529C21.9579 8.05529 22.1131 8.2105 22.1131 8.40172V17.0363L23.0829 17.613C23.195 17.6703 23.2716 17.787 23.2716 17.9214V49.6536C23.2716 49.8453 23.1164 50 22.9252 50C22.734 50 22.5793 49.8453 22.5793 49.6536V40.9942ZM24.3708 41.4765C24.3708 41.6678 24.2161 41.823 24.0249 41.823C23.8331 41.823 23.6784 41.6678 23.6784 41.4765V9.74436C23.6784 9.55313 23.8331 9.39792 24.0249 9.39792C24.2161 9.39792 24.3708 9.55313 24.3708 9.74436V41.4765ZM26.629 42.8192C26.629 43.0104 26.4737 43.1656 26.2825 43.1656C26.0913 43.1656 25.9361 43.0104 25.9361 42.8192V11.087C25.9361 10.8953 26.0913 10.7406 26.2825 10.7406C26.4737 10.7406 26.629 10.8953 26.629 11.087V42.8192ZM28.8866 44.1618C28.8866 44.353 28.7314 44.5082 28.5402 44.5082C28.349 44.5082 28.1938 44.353 28.1938 44.1618V12.4291C28.1938 12.2379 28.349 12.0827 28.5402 12.0827C28.7314 12.0827 28.8866 12.2379 28.8866 12.4291V44.1618ZM31.1448 45.5044C31.1448 45.6957 30.9896 45.8504 30.7984 45.8504C30.6071 45.8504 30.4519 45.6957 30.4519 45.5044V13.7717C30.4519 13.5805 30.6071 13.4253 30.7984 13.4253C30.9896 13.4253 31.1448 13.5805 31.1448 13.7717V45.5044ZM2.95054 37.5709C2.95054 37.7621 2.79584 37.9173 2.60411 37.9173C2.41288 37.9173 2.25818 37.7621 2.25818 37.5709V5.8387C2.25818 5.64748 2.41288 5.49226 2.60411 5.49226C2.79584 5.49226 2.95054 5.64748 2.95054 5.8387V37.5709ZM5.20872 38.9135C5.20872 39.1047 5.05351 39.26 4.86229 39.26C4.67106 39.26 4.51585 39.1047 4.51585 38.9135V7.18133C4.51585 6.99011 4.67106 6.8349 4.86229 6.8349C5.05351 6.8349 5.20872 6.99011 5.20872 7.18133V38.9135Z" fill="#212529"/>
<path d="M45.5448 39V11.48H47.7848V36.92H55.0248V39H45.5448Z" fill="#212529"/>
<path d="M74.4551 39V15.76H74.2551L69.0551 39H66.6551L61.5351 15.76H61.3351V39H59.2151V11.48H62.5351L67.8151 35.08H68.0551L73.3751 11.48H76.6151V39H74.4551Z" fill="#212529"/>
<path d="M95.7226 39L91.4426 14.64H91.2826L87.0426 39H85.4026L80.9226 11.48H82.4026L86.1626 35.84H86.3626L90.5226 11.48H92.2426L96.4426 35.84H96.6426L100.403 11.48H101.843L97.3626 39H95.7226Z" fill="#212529"/>
<path d="M106.365 11.48H111.485C113.512 11.48 114.965 11.8133 115.845 12.48C116.725 13.12 117.312 14.36 117.605 16.2C117.898 18.0133 118.045 21.0267 118.045 25.24C118.045 29.4533 117.898 32.48 117.605 34.32C117.312 36.1333 116.725 37.3733 115.845 38.04C114.965 38.68 113.512 39 111.485 39H106.365V11.48ZM111.485 37.64C113.085 37.64 114.205 37.4133 114.845 36.96C115.512 36.5067 115.965 35.4533 116.205 33.8C116.472 32.12 116.605 29.2667 116.605 25.24C116.605 21.2133 116.472 18.3733 116.205 16.72C115.965 15.04 115.512 13.9733 114.845 13.52C114.205 13.0667 113.085 12.84 111.485 12.84H107.805V37.64H111.485Z" fill="#212529"/>
</svg>
